<?xml version="1.0" standalone="no"?>
<!DOCTYPE svg PUBLIC "-//W3C//DTD SVG 20010904//EN"
 "http://www.w3.org/TR/2001/REC-SVG-20010904/DTD/svg10.dtd">
<svg version="1.0" xmlns="http://www.w3.org/2000/svg"
 width="230.000000pt" height="222.000000pt" viewBox="0 0 230.000000 222.000000"
 preserveAspectRatio="xMidYMid meet">

<g transform="translate(0.000000,222.000000) scale(0.100000,-0.100000)"
fill="#7a2d42" stroke="none">
<path d="M1080 2140 c-192 -27 -353 -172 -401 -363 -16 -67 -7 -209 20 -282
44 -123 176 -275 439 -509 156 -138 235 -223 269 -289 25 -46 28 -63 28 -147
0 -78 -4 -102 -22 -135 -30 -55 -89 -110 -148 -137 -63 -28 -184 -31 -261 -5
-100 34 -174 123 -197 237 -7 33 -16 61 -20 61 -4 1 -42 -2 -85 -6 l-78 -7 7
-60 c11 -91 75 -213 144 -277 297 -271 772 -120 836 267 16 95 1 184 -45 278
-42 84 -101 153 -250 289 -60 55 -175 164 -256 242 -121 118 -153 155 -181
210 -31 63 -34 75 -34 158 1 77 5 97 27 140 14 28 34 59 45 71 119 134 344
133 463 -3 49 -55 72 -117 77 -203 3 -41 5 -75 6 -76 1 -1 37 4 80 10 52 7 82
17 87 27 12 20 -5 135 -28 197 -26 67 -86 155 -134 196 -58 50 -149 95 -225
111 -74 16 -81 16 -163 5z"/>
<path d="M500 1578 c-391 -34 -569 -530 -290 -808 185 -185 480 -194 693 -21
46 38 167 173 167 188 0 15 -121 116 -129 107 -142 -171 -214 -228 -310 -246
-110 -21 -218 11 -292 85 -130 131 -125 336 12 456 58 50 101 63 205 62 l93
-1 -14 27 c-8 15 -17 54 -21 85 -4 32 -12 61 -18 66 -6 4 -49 5 -96 0z"/>
<path d="M1555 1544 c-38 -13 -77 -26 -85 -27 -8 -1 -73 -59 -145 -130 l-130
-127 63 -61 63 -62 97 101 c101 104 142 131 230 152 100 23 188 -4 266 -83 62
-63 90 -133 90 -227 0 -67 -32 -160 -54 -160 -6 0 -9 -4 -6 -9 7 -11 -68 -87
-104 -106 -35 -18 -132 -35 -160 -28 -22 6 -23 4 -15 -28 4 -19 9 -46 10 -62
1 -15 5 -30 8 -34 4 -3 7 -16 7 -28 0 -21 2 -22 58 -13 139 20 255 84 329 181
83 108 120 262 94 390 -27 130 -129 270 -239 330 -114 62 -258 74 -377 31z"/>
</g>
</svg>
